<?xml version="1.0" encoding="UTF-8" standalone="no"?>
<!-- Created with Inkscape (http://www.inkscape.org/) -->

<svg
   xmlns:dc="http://purl.org/dc/elements/1.1/"
   xmlns:cc="http://creativecommons.org/ns#"
   xmlns:rdf="http://www.w3.org/1999/02/22-rdf-syntax-ns#"
   xmlns:svg="http://www.w3.org/2000/svg"
   xmlns="http://www.w3.org/2000/svg"
   xmlns:xlink="http://www.w3.org/1999/xlink"
   xmlns:sodipodi="http://sodipodi.sourceforge.net/DTD/sodipodi-0.dtd"
   xmlns:inkscape="http://www.inkscape.org/namespaces/inkscape"
   width="210mm"
   height="297mm"
   viewBox="0 0 210 297"
   version="1.1"
   id="svg4174"
   inkscape:version="0.92.4 (5da689c313, 2019-01-14)"
   sodipodi:docname="logo.svg">
  <defs
     id="defs4168">
    <linearGradient
       inkscape:collect="always"
       xlink:href="#linearGradient1392"
       id="linearGradient3768-2"
       x1="-316.00879"
       y1="161.97041"
       x2="-309.41104"
       y2="161.97041"
       gradientUnits="userSpaceOnUse"
       gradientTransform="translate(416.84197,3.0777618)" />
    <linearGradient
       id="linearGradient1392"
       inkscape:collect="always">
      <stop
         id="stop1388"
         offset="0"
         style="stop-color:#e55264;stop-opacity:1" />
      <stop
         id="stop1390"
         offset="1"
         style="stop-color:#f96e73;stop-opacity:1" />
    </linearGradient>
    <linearGradient
       inkscape:collect="always"
       xlink:href="#linearGradient1392"
       id="linearGradient3770-7"
       x1="-317.62894"
       y1="169.57234"
       x2="-313.97375"
       y2="169.57234"
       gradientUnits="userSpaceOnUse"
       gradientTransform="translate(416.84197,3.0777618)" />
    <linearGradient
       inkscape:collect="always"
       xlink:href="#linearGradient1392"
       id="linearGradient3772-4"
       x1="-345.91254"
       y1="122.84401"
       x2="-342.32269"
       y2="122.84401"
       gradientUnits="userSpaceOnUse"
       gradientTransform="translate(416.84197,3.0777618)" />
    <linearGradient
       inkscape:collect="always"
       xlink:href="#linearGradient1392"
       id="linearGradient3774-3"
       x1="-343.73972"
       y1="128.87753"
       x2="-335.36023"
       y2="128.87753"
       gradientUnits="userSpaceOnUse"
       gradientTransform="translate(416.84197,3.0777618)" />
    <linearGradient
       inkscape:collect="always"
       xlink:href="#linearGradient1392"
       id="linearGradient3776-2"
       x1="-377.08957"
       y1="146.85721"
       x2="-373.50159"
       y2="146.85721"
       gradientUnits="userSpaceOnUse"
       gradientTransform="translate(416.84197,3.0777618)" />
    <linearGradient
       inkscape:collect="always"
       xlink:href="#linearGradient1392"
       id="linearGradient3778-3"
       x1="-374.9176"
       y1="152.89265"
       x2="-366.57361"
       y2="152.89265"
       gradientUnits="userSpaceOnUse"
       gradientTransform="translate(416.84197,3.0777618)" />
    <linearGradient
       inkscape:collect="always"
       xlink:href="#linearGradient1392"
       id="linearGradient3780-8"
       x1="-350.69534"
       y1="120.33184"
       x2="-310.9437"
       y2="120.33184"
       gradientUnits="userSpaceOnUse"
       gradientTransform="translate(416.84197,3.0777618)" />
    <linearGradient
       inkscape:collect="always"
       xlink:href="#linearGradient1392"
       id="linearGradient3782-2"
       x1="-344.89972"
       y1="159.08417"
       x2="-305.14853"
       y2="159.08417"
       gradientUnits="userSpaceOnUse"
       gradientTransform="translate(416.84197,3.0777618)" />
    <linearGradient
       inkscape:collect="always"
       xlink:href="#linearGradient1392"
       id="linearGradient3784-4"
       x1="-381.72958"
       y1="143.58455"
       x2="-341.97824"
       y2="143.58455"
       gradientUnits="userSpaceOnUse"
       gradientTransform="translate(416.84197,3.0777618)" />
    <linearGradient
       inkscape:collect="always"
       xlink:href="#linearGradient1392"
       id="linearGradient4078"
       gradientUnits="userSpaceOnUse"
       gradientTransform="translate(-396.3584,131.89358)"
       x1="-191.01817"
       y1="69.820892"
       x2="-79.501579"
       y2="69.820892" />
    <filter
       style="color-interpolation-filters:sRGB"
       inkscape:label="Blur"
       id="filter4802-2-39-9">
      <feGaussianBlur
         stdDeviation="1 1"
         result="blur"
         id="feGaussianBlur4800-3-1-1" />
    </filter>
  </defs>
  <sodipodi:namedview
     id="base"
     pagecolor="#ffffff"
     bordercolor="#666666"
     borderopacity="1.0"
     inkscape:pageopacity="0.0"
     inkscape:pageshadow="2"
     inkscape:zoom="0.7"
     inkscape:cx="340.24088"
     inkscape:cy="571.13296"
     inkscape:document-units="mm"
     inkscape:current-layer="layer1"
     showgrid="false"
     inkscape:window-width="1366"
     inkscape:window-height="705"
     inkscape:window-x="-8"
     inkscape:window-y="-8"
     inkscape:window-maximized="1" />
  <metadata
     id="metadata4171">
    <rdf:RDF>
      <cc:Work
         rdf:about="">
        <dc:format>image/svg+xml</dc:format>
        <dc:type
           rdf:resource="http://purl.org/dc/dcmitype/StillImage" />
        <dc:title></dc:title>
      </cc:Work>
    </rdf:RDF>
  </metadata>
  <g
     inkscape:label="Layer 1"
     inkscape:groupmode="layer"
     id="layer1">
    <path
       sodipodi:type="star"
       id="path3715-3-5-3-9"
       sodipodi:sides="6"
       sodipodi:cx="74.234528"
       sodipodi:cy="87.601181"
       sodipodi:r1="54.475796"
       sodipodi:r2="47.177425"
       sodipodi:arg1="3.1415927"
       sodipodi:arg2="3.6651914"
       inkscape:flatsided="true"
       inkscape:rounded="0.04"
       inkscape:randomized="0"
       d="m 19.758732,87.601179 c 0,-2.179032 25.350803,-46.087906 27.2379,-47.177422 1.887097,-1.089516 52.588699,-1.089514 54.475798,2e-6 1.88709,1.089516 27.23789,44.998393 27.23789,47.177425 0,2.179031 -25.3508,46.087906 -27.2379,47.177426 -1.887094,1.08951 -52.588696,1.08951 -54.475792,-10e-6 C 45.109531,133.68909 19.758732,89.78021 19.758732,87.601179 Z"
       inkscape:transform-center-y="4.4554939e-06"
       style="fill:#000000;fill-opacity:0.10101013;stroke:none;stroke-width:2.56483698;stroke-miterlimit:4;stroke-dasharray:none;stroke-opacity:0.14646463;filter:url(#filter4802-2-39-9)"
       transform="matrix(1.0295328,0,0,1.0295328,-1.9655725,52.597422)"
       inkscape:transform-center-x="-4.7563476e-06" />
    <path
       sodipodi:type="star"
       id="path3715-7-0-4"
       sodipodi:sides="6"
       sodipodi:cx="-531.61829"
       sodipodi:cy="201.71448"
       sodipodi:r1="54.475796"
       sodipodi:r2="47.177425"
       sodipodi:arg1="3.1415927"
       sodipodi:arg2="3.6651914"
       inkscape:flatsided="true"
       inkscape:rounded="0.04"
       inkscape:randomized="0"
       d="m -586.09408,201.71448 c 0,-2.17904 25.3508,-46.08791 27.2379,-47.17743 1.8871,-1.08951 52.5887,-1.08951 54.47579,1e-5 1.8871,1.08951 27.2379,44.99839 27.2379,47.17742 0,2.17903 -25.3508,46.08791 -27.2379,47.17742 -1.8871,1.08952 -52.5887,1.08952 -54.4758,0 -1.88709,-1.08952 -27.23789,-44.99839 -27.23789,-47.17742 z"
       inkscape:transform-center-y="-1.986554e-06"
       style="fill:#ffffff;fill-opacity:1;stroke:url(#linearGradient4078);stroke-width:3.66499996;stroke-miterlimit:4;stroke-dasharray:none;stroke-opacity:1"
       transform="matrix(1.006826,0,0,0.99987235,612.20304,-58.903019)"
       inkscape:transform-center-x="1.8411419e-05" />
    <path
       style="fill:url(#linearGradient3784-4);fill-opacity:1;stroke:none;stroke-width:1.25300002;stroke-miterlimit:4;stroke-dasharray:none;stroke-opacity:1"
       inkscape:connector-curvature="0"
       d="m 47.321047,164.48235 a 1.2271364,1.2271364 0 0 0 1.142781,0.45396 l 18.02398,-2.68286 a 1.228055,1.228055 0 0 0 0.959498,-0.76338 l 6.706,-17.0634 a 1.2291268,1.2291268 0 0 0 -0.177599,-1.20554 l -11.32073,-14.37901 a 1.2260647,1.2260647 0 0 0 -1.14309,-0.45365 l -18.023509,2.68255 a 1.2283613,1.2283613 0 0 0 -0.959512,0.76353 l -6.705999,17.06325 a 1.2291268,1.2291268 0 0 0 0.17775,1.2057 z m -3.21183,-31.64679 17.322139,-2.57829 10.88454,13.82431 -6.448938,16.40688 -17.32199,2.57829 -10.883922,-13.82385 z"
       id="path3601-8" />
    <path
       style="fill:url(#linearGradient3782-2);fill-opacity:1;stroke:none;stroke-width:1.25300002;stroke-miterlimit:4;stroke-dasharray:none;stroke-opacity:1"
       inkscape:connector-curvature="0"
       d="m 99.484527,144.34155 a 1.2271364,1.2271364 0 0 0 -1.142931,-0.4535 l -18.02352,2.68255 a 1.2282081,1.2282081 0 0 0 -0.959498,0.76354 l -6.705851,17.06324 a 1.229433,1.229433 0 0 0 0.177601,1.2057 l 11.320579,14.37901 a 1.2271364,1.2271364 0 0 0 1.14263,0.4538 l 18.023973,-2.6827 a 1.2283613,1.2283613 0 0 0 0.95951,-0.76354 l 6.706,-17.06324 a 1.229433,1.229433 0 0 0 -0.1776,-1.2057 z m 3.212143,31.6468 -17.322142,2.57798 -10.88377,-13.82385 6.448168,-16.40673 17.322142,-2.57829 10.883772,13.82385 z"
       id="path3603-2" />
    <path
       style="fill:url(#linearGradient3780-8);fill-opacity:1;stroke:none;stroke-width:1.25300002;stroke-miterlimit:4;stroke-dasharray:none;stroke-opacity:1"
       inkscape:connector-curvature="0"
       d="m 78.355736,141.22984 a 1.2248398,1.2248398 0 0 0 1.142471,0.45365 l 18.023969,-2.6827 a 1.2285144,1.2285144 0 0 0 0.959512,-0.76354 l 6.706002,-17.06309 a 1.2286675,1.2286675 0 0 0 -0.1776,-1.20585 L 93.689348,105.58945 a 1.2274426,1.2274426 0 0 0 -1.142622,-0.45395 l -18.02398,2.6827 a 1.228055,1.228055 0 0 0 -0.959498,0.76354 l -6.706002,17.06309 a 1.2289737,1.2289737 0 0 0 0.177451,1.20585 z M 92.816657,106.9527 h -0.0021 z m -17.673061,2.63065 17.321991,-2.57829 10.884693,13.82385 -6.448943,16.40673 -17.322139,2.57829 -10.88377,-13.82385 z"
       id="path3605-1" />
    <path
       style="fill:url(#linearGradient3778-3);fill-opacity:1;stroke:none;stroke-width:1.25300002;stroke-miterlimit:4;stroke-dasharray:none;stroke-opacity:1"
       inkscape:connector-curvature="0"
       d="m 49.295337,160.02532 a 0.91862989,0.91862989 0 0 0 0.153109,-1.29022 l -5.242619,-6.64736 a 0.91867037,0.91867037 0 1 0 -1.442709,1.13772 l 5.242158,6.64675 a 0.91862989,0.91862989 0 0 0 1.290061,0.15311 z"
       id="path3607-0" />
    <path
       style="fill:url(#linearGradient3776-2);fill-opacity:1;stroke:none;stroke-width:1.25300002;stroke-miterlimit:4;stroke-dasharray:none;stroke-opacity:1"
       inkscape:connector-curvature="0"
       d="m 42.544636,149.76805 -0.478759,-0.70153 a 0.91862989,0.91862989 0 0 0 -1.51743,1.03576 l 0.478761,0.70152 a 0.91862989,0.91862989 0 0 0 1.517428,-1.03575 z"
       id="path3609-9" />
    <path
       style="fill:url(#linearGradient3774-3);fill-opacity:1;stroke:none;stroke-width:1.25300002;stroke-miterlimit:4;stroke-dasharray:none;stroke-opacity:1"
       inkscape:connector-curvature="0"
       d="m 80.470418,136.00789 a 0.91862989,0.91862989 0 0 0 0.153109,-1.29006 l -5.24216,-6.64721 a 0.91862989,0.91862989 0 0 0 -1.44271,1.13757 l 5.242309,6.64721 a 0.91862989,0.91862989 0 0 0 1.290222,0.1531 z"
       id="path3611-9" />
    <path
       style="fill:url(#linearGradient3772-4);fill-opacity:1;stroke:none;stroke-width:1.25300002;stroke-miterlimit:4;stroke-dasharray:none;stroke-opacity:1"
       inkscape:connector-curvature="0"
       d="m 73.719717,125.75093 -0.478761,-0.70153 a 0.91862989,0.91862989 0 0 0 -1.517578,1.03545 l 0.47861,0.70153 a 0.91864865,0.91864865 0 0 0 1.517729,-1.03545 z"
       id="path3613-2" />
    <path
       style="fill:url(#linearGradient3770-7);fill-opacity:1;stroke:none;stroke-width:1.25300002;stroke-miterlimit:4;stroke-dasharray:none;stroke-opacity:1"
       inkscape:connector-curvature="0"
       d="m 100.41066,174.19503 a 0.91755817,0.91755817 0 0 0 1.19698,-0.50525 l 0.56373,-1.38698 a 0.91862989,0.91862989 0 0 0 -1.70191,-0.69188 l -0.563893,1.38698 a 0.91862989,0.91862989 0 0 0 0.505093,1.19713 z"
       id="path3615-2" />
    <path
       style="fill:url(#linearGradient3768-2);fill-opacity:1;stroke:none;stroke-width:1.25300002;stroke-miterlimit:4;stroke-dasharray:none;stroke-opacity:1"
       inkscape:connector-curvature="0"
       d="m 102.0299,170.21307 a 0.91862989,0.91862989 0 0 0 1.19682,-0.50524 l 3.50718,-8.62609 a 0.91862989,0.91862989 0 0 0 -1.70192,-0.69188 l -3.5061,8.62609 a 0.91862989,0.91862989 0 0 0 0.50402,1.19712 z"
       id="path3617-5" />
  </g>
</svg>
